<?xml version="1.0" standalone="no"?><!DOCTYPE svg PUBLIC "-//W3C//DTD SVG 1.1//EN" "http://www.w3.org/Graphics/SVG/1.1/DTD/svg11.dtd"><svg class="icon" width="200px" height="200.00px" viewBox="0 0 1024 1024" version="1.1" xmlns="http://www.w3.org/2000/svg"><path fill="#515151" d="M868.780823 737.771023c-41.720194-22.018479-90.707908-16.272615-125.823684 10.69355l-416.495856-219.817428c0.118704-2.160199 0.184195-4.333702 0.184195-6.523577 0-3.709485-0.181125-7.377014-0.518816-10.998495L733.878366 275.485285c36.124755 25.598005 85.297688 29.460985 126.140908 5.856381 55.895031-32.301683 75.020624-103.799064 42.719964-159.694095-32.301683-55.895031-103.799064-75.021647-159.694095-42.719964-40.844244 23.603581-62.049195 68.136843-57.906851 112.217804L277.396821 426.780083c-19.091824-13.570063-42.435485-21.548782-67.641563-21.548782-64.557318 0-116.891244 52.333926-116.891244 116.891244s52.333926 116.891244 116.891244 116.891244c26.815739 0 51.517327-9.035794 71.239508-24.220634l416.495856 219.817428c-2.447748 44.207851 20.450774 87.893816 62.169945 109.912295 57.093323 30.132274 127.803781 8.276501 157.937079-48.816822C947.730942 838.613756 925.874145 767.903298 868.780823 737.771023z" /></svg>