<?xml version="1.0" standalone="no"?><!DOCTYPE svg PUBLIC "-//W3C//DTD SVG 1.1//EN" "http://www.w3.org/Graphics/SVG/1.1/DTD/svg11.dtd"><svg class="icon" width="200px" height="200.00px" viewBox="0 0 1024 1024" version="1.1" xmlns="http://www.w3.org/2000/svg"><path fill="#515151" d="M695.296 635.904c33.792 0 64.512-29.696 64.512-64.512 0-33.792-29.696-64.512-64.512-64.512-33.792 0-64.512 29.696-64.512 64.512C631.808 610.304 657.408 635.904 695.296 635.904zM695.296 555.008c12.288 0 21.504 8.192 21.504 21.504 0 13.312-8.192 21.504-21.504 21.504-13.312 0-21.504-8.192-21.504-21.504C673.792 563.2 683.008 555.008 695.296 555.008zM319.488 635.904c33.792 0 64.512-29.696 64.512-64.512 0-33.792-29.696-64.512-64.512-64.512S256 541.696 256 575.488C256 610.304 285.696 635.904 319.488 635.904zM319.488 555.008c8.192 0 21.504 8.192 21.504 21.504 0 8.192-13.312 21.504-21.504 21.504-8.192 0-21.504-13.312-21.504-21.504C299.008 563.2 307.2 555.008 319.488 555.008zM921.6 136.192l-84.992 0L175.104 136.192 89.088 136.192c-21.504 0-43.008 17.408-43.008 43.008l0 84.992c0 21.504 17.408 43.008 43.008 43.008l43.008 0 0 541.696c0 21.504 17.408 43.008 43.008 43.008l665.6 0c21.504 0 43.008-17.408 43.008-43.008L883.712 303.104l43.008 0c21.504 0 43.008-17.408 43.008-43.008l0-84.992C964.608 157.696 947.2 136.192 921.6 136.192zM840.704 844.8l-665.6 0L175.104 303.104l665.6 0L840.704 844.8zM921.6 260.096 89.088 260.096l0-84.992L921.6 175.104 921.6 260.096zM507.904 635.904c33.792 0 64.512-29.696 64.512-64.512 0-33.792-29.696-64.512-64.512-64.512-33.792 0-64.512 29.696-64.512 64.512C443.392 610.304 474.112 635.904 507.904 635.904zM507.904 555.008c13.312 0 21.504 8.192 21.504 21.504 0 13.312-8.192 21.504-21.504 21.504-13.312 0-21.504-8.192-21.504-21.504C486.4 563.2 494.592 555.008 507.904 555.008z" /></svg>