<?xml version="1.0" standalone="no"?><!DOCTYPE svg PUBLIC "-//W3C//DTD SVG 1.1//EN" "http://www.w3.org/Graphics/SVG/1.1/DTD/svg11.dtd"><svg class="icon" width="200px" height="200.00px" viewBox="0 0 1024 1024" version="1.1" xmlns="http://www.w3.org/2000/svg"><path fill="#ffffff" d="M962 363.788l-260.258-297.435v-1.66h-76.26v577.482c-63.359-53.487-159.857-91.428-261.695-91.428-175.921 0-299.117 112.808-299.117 224.338 0 111.507 123.174 186.937 299.117 186.937 175.921 0 336.496-75.43 336.496-186.937l1.121-548.853 185.815 212.335 74.779-74.779zM363.788 887.221c-125.687 0-224.338-50.235-224.338-112.158 0-61.946 98.651-149.581 224.338-149.581 125.664 0 224.338 87.635 224.338 149.581 0 61.924-98.674 112.158-224.338 112.158z" /></svg>