<?xml version="1.0" standalone="no"?><!DOCTYPE svg PUBLIC "-//W3C//DTD SVG 1.1//EN" "http://www.w3.org/Graphics/SVG/1.1/DTD/svg11.dtd"><svg class="icon" width="200px" height="160.00px" viewBox="0 0 1280 1024" version="1.1" xmlns="http://www.w3.org/2000/svg"><path fill="#515151" d="M0.00128 64c0-35.328 29.12-64 63.488-64h1153.024c35.072 0 63.488 28.48 63.488 64v896c0 35.328-29.12 64-63.488 64H63.48928A63.616 63.616 0 0 1 0.00128 960V64z m384 64a128 128 0 1 0 0 256.064A128 128 0 0 0 384.00128 128z m-2.944 384.384C256.00128 512 114.81728 896 114.81728 896L1152.00128 895.872l-0.384-649.984C832.00128 256 647.93728 659.84 647.93728 659.84s-141.824-147.136-266.88-147.52z" /></svg>