<?xml version="1.0" standalone="no"?><!DOCTYPE svg PUBLIC "-//W3C//DTD SVG 1.1//EN" "http://www.w3.org/Graphics/SVG/1.1/DTD/svg11.dtd"><svg class="icon" width="200px" height="200.00px" viewBox="0 0 1024 1024" version="1.1" xmlns="http://www.w3.org/2000/svg"><path fill="#515151" d="M579.84 270.016h276.416a34.56 34.56 0 1 0 0-69.12H579.84a34.496 34.496 0 1 0 0 69.12z"  /><path fill="#515151" d="M856.256 307.136H498.56a839.936 839.936 0 0 1-16.768-62.784c-17.664-73.216-26.496-110.016-61.824-110.016H165.056C109.312 134.336 64 187.456 64 252.8v518.336c0 65.344 45.312 118.464 101.056 118.464h691.2c55.744 0 101.12-53.12 101.12-118.528v-345.6c0-65.216-45.376-118.336-101.12-118.336z m37.12 464c0 29.504-17.024 54.528-37.12 54.528h-691.2C144.96 825.6 128 800.64 128 771.136V252.8c0-29.504 16.96-54.464 37.056-54.464h238.272c5.12 15.04 11.584 41.792 16.192 60.992 17.92 74.432 26.944 111.808 62.656 111.808h374.016c20.096 0 37.12 24.896 37.12 54.4v345.6z"  /></svg>